<?xml version="1.0" standalone="no"?><!DOCTYPE svg PUBLIC "-//W3C//DTD SVG 1.1//EN" "http://www.w3.org/Graphics/SVG/1.1/DTD/svg11.dtd"><svg t="1531911890597" class="icon" style="" viewBox="0 0 1024 1024" version="1.1" xmlns="http://www.w3.org/2000/svg" p-id="2917" xmlns:xlink="http://www.w3.org/1999/xlink" width="48" height="48"><defs><style type="text/css">html, * { user-select: text !important; }
</style></defs><path d="M848.4 189.6c-0.9-28.1-11.1-39.9-57.5-57.5-56.5-21.5-131.1-34.5-240.4-34.5-109.4 0-162.5 8.5-232.9 29.9-30.3 9.2-63.4 30.5-63.4 62.1 0 22.5 13.3 42 32.3 51.4v412.4c0 25 20.3 45.3 45.3 45.3H771c25 0 45.3-20.3 45.3-45.3V240.9c18.9-9.4 32.1-28.8 32.1-51.3z" fill="#FCDA55" p-id="2918"></path><path d="M768.7 249c0 25.3-13.4 47.3-32.4 57.9v391.7h-390c-24.9 0-45.3-20.4-45.3-45.3V240.8c-19-9.3-32.1-28.7-32.1-51.4 0-7.9 2-15.2 5.9-22 54.5-15.6 106.6-22.2 196-22.2 109.3 0 184 14.7 240.3 38.9 46.3 20.1 56.5 33.2 57.6 64.9z" fill="#FDA106" p-id="2919"></path><path d="M711.6 274.4c-0.9-28.1-11.1-39.9-57.5-57.5-56.5-21.5-131.1-34.5-240.4-34.5-109.4 0-162.5 8.5-232.9 29.9-30.3 9.2-63.4 30.5-63.4 62.1 0 22.5 13.3 42 32.3 51.4v412.4c0 25 20.3 45.3 45.3 45.3h439c25 0 45.3-20.3 45.3-45.3V325.8c19-9.4 32.3-28.8 32.3-51.4z" fill="#FCDA55" p-id="2920"></path><path d="M596.7 321.9c57.8 12 103.6 14.6 125.4-0.9 19.3-13.7 21.1-71.2 8.4-91.7-25.1-40.8-84-33.7-84-33.7 90.7 88.5-49.8 126.3-49.8 126.3z" fill="#FDA106" p-id="2921"></path><path d="M671.3 224.5c-5.4-2.4-11.3-4.9-18.3-7.6-56.5-21.5-131.1-34.5-240.4-34.5-109.4 0-162.5 8.5-232.9 29.9-30.3 9.2-63.4 30.5-63.4 62.1 0 22.5 13.3 42 32.3 51.4v412.4c0 25 20.3 45.3 45.3 45.3h18.6c-3.6-6.5-5.8-13.8-5.8-21.8V347.3c-19.1-9.5-32.4-29-32.4-51.6 0-15.1 7.6-27.7 18.8-37.9 5.4 15.5 19.9 26.8 37.3 26.8 21.9 0 39.6-17.7 39.6-39.6 0-7.1-2-13.6-5.2-19.3 58.8-15.9 111.6-22.4 207.3-22.4 84.6-0.1 148.4 7.7 199.2 21.2z" fill="#FFFFFF" p-id="2922"></path><path d="M344.2 306.4c-73-10.9-124.8 73.2-71.7 167.3 43.7 77.5-34.3 141.2 43.9 198.9 31.9 23.5 150.2 33.2 207.8-21 75.2-70.6 169.9-68 110.2-158.7-87.2-132.5-46.2-134.7-85.6-169.2-48.5-42.4-108.5-2.9-204.6-17.3z" fill="#FF694B" p-id="2923"></path><path d="M443.9 373.8c1.3-7.7 47.9-55 64.1-32.3L900.3 876c10.8 14.3 7.5 34.8-7.2 45.2-14.9 10.4-35.3 6.6-45.4-8.4 0 0-127.9-175.8-175.3-249-5.7 2.3-53.1 12.4-60.2 9.4-27.2-11.4-173.6-268.6-168.3-299.4z" fill="#EFEFEF" p-id="2924"></path><path d="M449.3 382.2c-5.9 34.4-2.3 59.3 4.1 79.1 3.4 10.6 110.5 166 110.5 166 13.3 17.2 36.3 46.9 54.1 49.9 8.4 1.4 54.7-24 54.7-24-14.7 4.3-35.6-4.6-45.1-8.8C611 637 477.4 443.1 474 432.5c-6.4-19.9-9.9-44.7-4.1-79.1 3.4-19.4-15.1-3.3-20.6 28.8z" fill="#FFFFFF" p-id="2925"></path><path d="M149.6 436.7c-9.9 0-18-8.1-18-18v-3.4c0-9.9 8.1-18 18-18s18 8.1 18 18v3.4c0 10-8.1 18-18 18zM816.2 321.9c-9.9 0-18-8.1-18-18v-63c0-6.8 3.9-13.1 10-16.1 13.7-6.8 22.2-20.3 22.2-35.3-0.5-16-0.8-23.6-45.9-40.7-59.1-22.5-135.7-33.4-234-33.4-112.1 0-162.7 9.4-227.6 29.2-11.1 3.4-21.4 8.1-29.8 13.9-8.3 5.6-19.4 3.4-25-4.8s-3.4-19.4 4.8-25c11.4-7.7 25.1-14.1 39.5-18.5 68.4-20.8 121.5-30.7 238.1-30.7 104.2 0 182.6 11.3 246.8 35.7 45.8 17.4 67.8 32.8 69.1 73.7 0 25.4-12.1 48.1-32.3 62.2v52.8c0.1 9.9-8 18-17.9 18zM772 778.7c-34.8-51-47.1-68.2-60.8-87.4-6.6-9.2-13.4-18.8-23.3-32.9-4.8-6.9-13.7-9.5-21.5-6.4-5.9 2.4-12.2 4.7-19.3 6.8-6.2 1.9-18.4 1.6-26.3 0.4-10.7-1.8-13.5-4.6-26-20.7L535.5 556c-5.8-8-17-9.9-25.1-4.1-8.1 5.8-9.9 17-4.1 25.1l59.7 82.9c13.1 17 23.5 30.4 48.9 34.7 9.1 1.5 28.3 2.9 42.7-1.4 1.3-0.4 2.4-0.8 3.6-1.2v46.1c0 15.1-12.2 27.4-27.1 27.4H194.9c-15.1 0-27.4-12.2-27.4-27.4V473.4c0-9.8-8.2-18-18-18s-18 8.2-18 18v264.7c0 34.8 28.3 63.4 63.4 63.4h439.2c34.8 0 63.1-28.6 63.1-63.4v-4.4c10 14.2 23 32.8 45 65.2 3.5 5.1 9.1 7.9 14.9 7.9 3.5 0 7-1 10.1-3.1 8.3-5.6 10.4-16.8 4.8-25z" fill="#662F0A" p-id="2926"></path><path d="M914.1 863.7L801.9 708.1c19.2-10.9 32.4-31.2 32.4-54.9V367.6c0-10.1-8.2-18-18-18-10.1 0-18 7.9-18 18v285.6c0 11.8-7.4 21.5-17.7 25.4l-83.3-115.5V335.9c20.2-13.9 32.4-36.7 32.4-62.2-1.4-40.8-23.5-56.4-69.1-73.7-64.1-24.2-142.6-35.8-247-35.8-116.4 0-169.7 9.8-238.1 30.7-36.7 11.3-76.1 37.9-76.1 79.4 0 24.7 12 47.5 32.2 61.4v23.8c0 9.8 8.2 18 18 18s18-8.2 18-18v-33.8c0-7-3.8-13.2-10.1-16.1-13.7-7-22.1-20.4-22.1-35.3 0-21.8 27.1-37.9 50.6-44.9 65-19.9 115.7-29.3 227.5-29.3 98.4 0 175 11 234 33.4 45.1 17.3 45.6 24.7 46.1 40.8 0 14.9-8.6 28.3-22.3 35.3-6 2.9-10.1 9.1-10.1 16.1V513l-132-183c-17.2-21.3-40.1-27.3-62.9-16.4-22.9 10.9-36.4 32.5-42.4 67.9-6.4 37.9 0 62.8 7.1 85 1.5 4.7 5.1 10.9 13.6 25.1 3.3 5.5 6.4 10.7 7.8 13.4 4.4 8.9 15.2 12.5 24.1 8.1 8.9-4.4 12.5-15.2 8.1-24.1-1.6-3.2-5.2-9.3-9.1-15.8-3.5-5.8-9.3-15.4-10.2-17.5-6.3-19.5-11-38.1-5.9-68 5-29.7 14.6-37.7 22.4-41.5 4.9-2.4 10.9-3.9 18.8 5.7l384.5 533c2.8 3.7 3.9 7.5 3.4 11.2-0.6 3.9-3.1 7.5-7.3 10.5-1.5 1-3.9 2.2-7.7 1.5-5.6-1.1-11.8-5.7-16.3-12.6 0 0-23.6-32.2-56.4-77.4-5.9-8-17.1-9.8-25.1-4s-9.8 17.1-4 25.1c32.5 44.7 55.9 76.8 56 76.8 9.4 14.3 24.1 24.5 39.2 27.4 3 0.6 5.9 0.8 8.8 0.8 9.4 0 18.6-2.9 26.3-8.4 12.1-8.6 19.9-20.7 22-34.3 2.1-12.9-1.5-26.6-9.9-37.8z" fill="#662F0A" p-id="2927"></path><path d="M491.8 550.8c-5.1 0-10.1-2.3-13.4-7l-1.3-1.9c-5.8-8.1-3.9-19.3 4.2-25.1s19.4-3.9 25.1 4.2c5.8 8.1 4.6 20.3-3.5 26-3.5 2.6-7.4 3.8-11.1 3.8z" fill="#662F0A" p-id="2928"></path></svg>