<?xml version="1.0" standalone="no"?><!DOCTYPE svg PUBLIC "-//W3C//DTD SVG 1.1//EN" "http://www.w3.org/Graphics/SVG/1.1/DTD/svg11.dtd"><svg t="1531911905466" class="icon" style="" viewBox="0 0 1024 1024" version="1.1" xmlns="http://www.w3.org/2000/svg" p-id="3444" xmlns:xlink="http://www.w3.org/1999/xlink" width="48" height="48"><defs><style type="text/css">html, * { user-select: text !important; }
</style></defs><path d="M515.6 859.5H349.7s-143.4-68.3-196.2-201.7c-12.8-32.2-30.5-116.1-17.7-162.5 5.6-20.2 24.6-34.2 46.4-34.2h500.9c21.8 0 40.8 14 46.4 34.1 12.9 46.2 0.9 130.2-10.9 162.6-47.1 129.7-203 201.7-203 201.7z" fill="#EFEFEF" p-id="3445"></path><path d="M729.6 495.2c-5.6-20.1-24.6-34.1-46.4-34.1h-70.5c21.8 0 40.8 14 46.4 34.1 12.9 46.2 0.9 130.2-10.9 162.6C601 787.5 445.1 859.5 445.1 859.5h70.5s155.9-72 203.1-201.7c11.7-32.4 23.7-116.4 10.9-162.6z" fill="#C9CACA" p-id="3446"></path><path d="M212.8 657.8c-6.6-16.6-14.4-46.8-18.7-78.5 3.1 0.7 6.2 1.2 9.5 1.2 23.2 0 42-18.8 42-42s-18.8-42-42-42c-3 0-6 0.4-8.8 1 0.2-0.7 0.2-1.5 0.4-2.2 5.6-20.2 24.6-34.2 46.4-34.2h-59.3c-21.9 0-40.9 14-46.4 34.2-12.8 46.5 4.9 130.3 17.7 162.5 52.8 133.4 196.2 201.7 196.2 201.7H409s-143.4-68.3-196.2-201.7z" fill="#FFFFFF" p-id="3447"></path><path d="M325.3 337.9c-1.9-16.9-10.2-29.6-26.9-41.3-11-7.7-15.3-10.6-32.3-19.7l-12.9-7.8c-15.2-9.3-20.3-12.4-28.3-21.8-6.2-7.3-12.6-14.8-12-37.9 0.5-19.9 14.2-37.6 38.4-49.8 6.2-3.1 12.5-4.3 16.7-5.1 4-0.8 7.5-1.4 7.5-5.2 0-4.8-6.2-4.8-10-4.8-12.5 0-38.2 4.1-54.8 19.6-15.8 14.7-23.8 32-23.8 51.4 0 38.8 22.6 55 39.2 66.8l2.2 1.6c5.5 4 15.2 9.8 25.2 15.8 12.6 7.6 25.6 15.4 30.6 19.7 7.2 6.2 15.3 15.5 14.4 31.9-1.5 27.7-33.7 43.7-49.2 51.4-7.3 3.6-9.6 4.8-10.7 6.9l-1 2.3 1.1 1.9 3 2.3h2.2c7.3 0 33.5-5.9 47.6-15 26-17.1 36.7-37.1 33.8-63.2zM489.5 337.9c-1.9-16.9-10.2-29.6-26.9-41.3-11-7.7-15.3-10.6-32.3-19.7l-12.9-7.8c-15.2-9.3-20.3-12.4-28.3-21.8-6.2-7.3-12.6-14.8-12-37.9 0.5-19.9 14.2-37.6 38.4-49.8 6.2-3.1 12.5-4.3 16.6-5.1 4-0.8 7.5-1.4 7.5-5.2 0-4.8-6.2-4.8-10-4.8-12.5 0-38.2 4.1-54.8 19.6-15.8 14.7-23.8 32-23.8 51.4 0 38.8 22.6 55 39.2 66.8l2.2 1.6c5.5 4 15.2 9.8 25.2 15.8 12.6 7.6 25.6 15.4 30.6 19.7 7.2 6.2 15.3 15.5 14.4 31.9-1.5 27.7-33.7 43.7-49.2 51.4-7.3 3.6-9.6 4.8-10.7 6.9l-1 2.3 1.1 1.9 3 2.3h2.2c7.3 0 33.5-5.9 47.6-15 26.1-17.1 36.8-37.1 33.9-63.2zM653.7 337.9c-1.9-16.9-10.2-29.6-26.9-41.3-11-7.7-15.3-10.6-32.3-19.7l-12.9-7.8c-15.2-9.3-20.3-12.4-28.3-21.8-6.2-7.3-12.6-14.8-12-37.9 0.5-19.9 14.2-37.6 38.4-49.8 6.2-3.1 12.5-4.3 16.7-5.1 4-0.8 7.5-1.4 7.5-5.2 0-4.8-6.2-4.8-10-4.8-12.5 0-38.2 4.1-54.8 19.6-15.8 14.7-23.8 32-23.8 51.4 0 38.8 22.6 55 39.2 66.8l2.2 1.6c5.5 4 15.2 9.8 25.2 15.8 12.6 7.6 25.6 15.4 30.6 19.7 7.2 6.2 15.3 15.5 14.4 31.9-1.5 27.7-33.7 43.7-49.2 51.4-7.3 3.6-9.6 4.8-10.7 6.9l-1 2.3 1.1 1.9 3 2.3h2.2c7.3 0 33.5-5.9 47.6-15 26-17.1 36.7-37.1 33.8-63.2zM524.5 623.3c-7.8-3.5-22.3-8.4-38.7-4.4-18.8 4.7-35.4 20-49.3 45.3-17.4 31.8-38.7 50.1-63.3 54.2-2.9 0.5-5.7 0.5-8.5 0.6 27.4 22.6 73 23 111.2-1.7 35.9-23 54-61.1 48.6-94z" fill="#662F0A" p-id="3448"></path><path d="M369.4 694.9c17-3 32.5-17.1 46.1-42 17.3-31.7 39.1-50.9 64.9-57.2 11.6-2.8 22.4-2.5 31.7-0.9-25-32.4-77.7-36.8-121.2-8.7-40.2 26-58.5 70.7-45.8 105.8 6.9 2.7 15.2 4.5 24.3 3zM148.4 658.5c-7.9 0-15.2-5.3-17.4-13.3l-1.6-5.6c-1.1-4-2.5-8.6-2.8-9.8-2.5-9.6 3.3-19.4 12.9-21.9 9.5-2.4 19.4 3.3 21.9 12.9l4.2 15c2.6 9.6-3 19.5-12.7 22.1-1.3 0.3-2.9 0.6-4.5 0.6z" fill="#662F0A" p-id="3449"></path><path d="M907.4 557.9c-18-71.3-92.6-74.4-129.6-66-9.7 2.2-15.8 11.8-13.6 21.5s11.8 15.8 21.5 13.6c3-0.6 72.8-15.8 86.7 39.7 5.4 21.5 1.3 43.7-12.4 65.9-27.3 44.4-91.5 85.5-169.9 111.1 18.4-23.6 34.6-50.2 45.4-79.8 6.1-16.8 12.8-48.5 15.8-82.6 27.8-10.4 68.9-17.8 76.3-4.6 10.3 18.2-12.5 49.7-61.4 84.2-9.4 6.7-19.7 13.2-30.7 19.4-8.6 4.8-11.5 15.8-6.7 24.5 3.4 5.8 9.4 9.1 15.8 9.1 2.9 0 6-0.7 8.9-2.4 12-6.7 23.3-13.9 33.6-21.1 86.4-61.2 86.9-105.4 71.8-131.8-19.5-34-70.6-26.7-106-15.8-0.2-19-1.8-37.4-6.1-52.7-7.7-27.8-33.9-47.3-63.8-47.3H182.3c-29.9 0-56.1 19.5-63.8 47.4-5.7 20.6-6.1 61.3-4.5 82.3 0.8 9.9 9.2 17.2 19.3 16.6 9.9-0.7 17.3-9.4 16.6-19.3-1.6-21.6-0.5-56.2 3.3-70 3.4-12.4 15.4-21 29.1-21h500.9c13.7 0 25.6 8.6 29.1 20.9 11.8 42.4-0.2 123.4-10.5 151.6-40.3 111-167.8 178.9-190.3 190.2H354.2c-19.9-10.6-117.5-65.9-170.6-154.7-5.1-8.5-16.1-11.3-24.7-6.2-8.5 5.1-11.3 16.1-6.2 24.7 37.7 63.2 94.2 109.8 135.7 138.1h-64.6c-9.9 0-18 8.1-18 18s8.1 18 18 18h428c9.9 0 18-8.1 18-18s-8.1-18-18-18h-72c19.8-13 42.6-30 65-50.5 0.3 0 3.4 0 4.8-0.3 110.6-24.9 203-78.9 241.2-141 18.7-30.4 24.4-62.8 16.6-93.7z" fill="#662F0A" p-id="3450"></path></svg>