<?xml version="1.0" standalone="no"?><!DOCTYPE svg PUBLIC "-//W3C//DTD SVG 1.1//EN" "http://www.w3.org/Graphics/SVG/1.1/DTD/svg11.dtd"><svg t="1531809971672" class="icon" style="" viewBox="0 0 1024 1024" version="1.1" xmlns="http://www.w3.org/2000/svg" p-id="2590" xmlns:xlink="http://www.w3.org/1999/xlink" width="48" height="48"><defs><style type="text/css">html, * { user-select: text !important; }
</style></defs><path d="M829.7 825.3H196.6L140.1 742h746.2z" fill="#DCDDDD" p-id="2591"></path><path d="M737 254c-9.4-31.9-38.5-55.3-73.5-55.3-34.9 0-64.1 23.4-73.5 55.3h-3.2c-9.4-31.9-38.5-55.3-73.5-55.3S449.4 222.1 440 254h-3.2c-9.4-31.9-38.5-55.3-73.5-55.3s-64.1 23.4-73.5 55.3h-0.8L149.4 742.6h727.4L737 254z" fill="#FFCC4D" p-id="2592"></path><path d="M362.8 254c5.8-19.8 19.3-36.3 37-46-10.8-5.9-23.2-9.3-36.4-9.3-34.9 0-64.1 23.4-73.5 55.3h-0.9L149.4 742.6h72.9L361.9 254h0.9z" fill="#FFDA88" p-id="2593"></path><path d="M876.8 742.6L738.9 260.2v-0.1l-1.7-6h-0.2c-9.4-31.9-38.5-55.3-73.5-55.3-12.2 0-23.6 3-33.8 8.1 10.6 9.5 18.7 21.7 22.9 35.7h0.1l1.7 6v0.1l129.2 452.1h-617l-18.3 41.4h632.5l0.2 0.5h95.8v-0.1z" fill="#E8A718" p-id="2594"></path><path d="M264 364.8c0-27.4 59.7-49.6 101.8-49.6 21.2 0 40.3 5.6 54 14.7 12.7 8.3 26.8 8.3 39.4 0 13.8-9.1 32.8-14.7 54-14.7 21.2 0 40.3 5.6 54 14.7 12.7 8.3 26.8 8.3 39.4 0 13.8-9.1 32.8-14.7 54-14.7 42.2 0 107.7 22.2 107.7 49.6 0 3.2 10.5 9.4 10.5 9.4s-57.5-165.1-68.2-165.1h-94.4l-25 52.1-26.7-52.1H462.9l-21.6 48.5-25-48.5H316.1c-5.1 0-20.7 25.6-30.5 57.5-15.1 49.3-32.9 107.6-32.9 107.6s11.3-6.2 11.3-9.4z" fill="#97754B" p-id="2595"></path><path d="M392.3 664.7c-1.9 0-3.8-0.1-5.7-0.4-19.6-3.1-33-21.5-29.9-41.2l35-221.7c3.1-19.6 21.5-33 41.2-30 19.6 3.1 33 21.5 29.9 41.2l-35 221.7c-2.8 17.8-18.1 30.4-35.5 30.4zM636.7 663.4c-17.5 0-32.9-12.8-35.6-30.7L568 412.3c-3-19.7 10.6-38 30.3-40.9 19.5-3.1 38 10.6 40.9 30.3l33.1 220.4c3 19.7-10.6 38-30.3 40.9-1.7 0.3-3.5 0.4-5.3 0.4z" fill="#E8A718" p-id="2596"></path><path d="M823.8 575.1c-7.9 0-15-5.2-17.3-13.1l-84.9-297c0-0.2-0.1-0.3-0.1-0.5l-1-3.6c-0.3-0.6-0.5-1.3-0.7-1.9-7.5-25.4-30.1-42.4-56.2-42.4s-48.7 17-56.2 42.4a18 18 0 0 1-17.3 12.9h-3.2c-8 0-15-5.3-17.3-12.9-7.5-25.4-30-42.4-56.2-42.4-26.1 0-48.7 17-56.2 42.4-2.2 7.8-9.2 13-17.2 13h-3.2c-8 0-15-5.3-17.3-12.9-7.5-25.4-30.1-42.4-56.2-42.4-25.5 0-47.7 16.9-56.4 43-3.2 9.4-13.3 14.5-22.8 11.4-9.4-3.1-14.5-13.3-11.4-22.8 13.5-40.5 49.9-67.6 90.5-67.6 30.3 0 57.6 14.1 75 37.1 17.5-23 44.8-37.1 75-37.1 30.3 0 57.6 14.1 75 37.1 17.5-23 44.8-37.1 75-37.1 41.5 0 77.4 26.4 90 66 0.4 0.8 0.6 1.5 0.9 2.3l1.7 6c0 0.2 0.1 0.4 0.2 0.6l84.7 296.5c2.7 9.6-2.8 19.5-12.4 22.2-1.2 0.6-2.9 0.8-4.5 0.8zM929.3 725.6h-35.9c-0.9-0.4-2-0.4-3-0.7l-25.8-90.3c-2.7-9.5-12.4-15.2-22.2-12.4-9.6 2.7-15.1 12.7-12.4 22.2l22.7 79.5H173.4l98.9-346.1c2.7-9.6-2.8-19.5-12.4-22.2-9.5-2.8-19.5 2.8-22.3 12.4l-102 357c-0.9 0.3-1.9 0.3-2.8 0.6H94.7c-9.9 0-18 8.1-18 18s8.1 18 18 18h36.9l50.1 73.8c3.4 4.9 8.9 7.9 14.9 7.9h633.2c6 0 11.6-3 14.9-7.9l50.1-73.8h34.6c9.9 0 18-8.1 18-18s-8.2-18-18.1-18z m-109.1 81.7H206.1l-31-45.7h676.1l-31 45.7zM273.7 330.3c-1.7 0-3.5-0.3-5.3-0.8-9.5-2.9-14.9-13-12-22.5s13.1-15.3 22.6-12.4 15 12.5 12.1 22l-0.3 0.8c-2.2 7.9-9.4 12.9-17.1 12.9z" fill="#662F0A" p-id="2597"></path><path d="M278.1 585.5c-1.6 0-3.1-0.2-4.7-0.6-9.6-2.6-15.3-12.5-12.7-22.1L298.2 424c2.6-9.6 12.5-15.4 22.1-12.7 9.6 2.6 15.3 12.5 12.7 22.1l-37.4 138.7c-2.3 8.1-9.5 13.4-17.5 13.4z" fill="#FFFFFF" p-id="2598"></path><path d="M335.9 366m-21 0a21 21 0 1 0 42 0 21 21 0 1 0-42 0Z" fill="#FFFFFF" p-id="2599"></path></svg>