<?xml version="1.0" standalone="no"?><!DOCTYPE svg PUBLIC "-//W3C//DTD SVG 1.1//EN" "http://www.w3.org/Graphics/SVG/1.1/DTD/svg11.dtd"><svg t="1531911828883" class="icon" style="" viewBox="0 0 1024 1024" version="1.1" xmlns="http://www.w3.org/2000/svg" p-id="2352" xmlns:xlink="http://www.w3.org/1999/xlink" width="48" height="48"><defs><style type="text/css">html, * { user-select: text !important; }
</style></defs><path d="M780.2 634.5L725 955.4H303.5l-55.2-320.9" fill="#9FEAF7" p-id="2353"></path><path d="M722.8 634.5l-55.4 323.3 57.6-2.4 55.2-320.9z" fill="#66D6E2" p-id="2354"></path><path d="M783.3 533.9c50.1 0 90.7 41.7 90.7 93s-40.6 93-90.7 93-90.7-41.7-90.7-93h0.6c0 51.4-40.6 93-90.7 93s-90.7-41.7-90.7-93h0.6c0 51.4-40.6 93-90.7 93s-90.7-41.7-90.7-93h0.6c0 51.4-40.6 93-90.7 93S150 678.4 150 627s40.6-93 90.7-93l1.5-0.4c30.7-58.8 100.7-219.9 272.3-219.9 167.2-3.2 238.4 158.5 266.9 220.2" fill="#FCDA55" p-id="2355"></path><path d="M466.6 623.4c-1.6 43.5-38.4 78.4-84 78.4-5.6 0-11.1-0.6-16.4-1.6 15.4 12.2 34.4 19.8 55.3 19.8 30.3 0 56.9-15.4 73.4-38.8-16.7-14.2-27.5-34.7-28.3-57.8zM298.7 623.4c-1.6 43.5-38.4 78.4-84 78.4-13.8 0-26.7-3.5-38.2-9.2 16.4 16.9 39.2 27.4 64.3 27.4 33.6 0 62.6-18.9 78.2-46.7-12.1-13.5-19.7-30.8-20.3-49.9zM656.7 623.4c-1.6 43.5-60.5 78.4-106.1 78.4-0.6 0-1.2-0.2-1.8-0.2 15.1 11.4 33.5 18.3 53.6 18.3 27.5 0 75.2-28.4 91.9-48.1-21.3-14-36.7-21.8-37.6-48.4zM795.3 539.9l-1.8-0.1c-28.5-61.7-99.8-223.4-266.9-220.2C473 319.6 417 345 417 345s40.2 6.6 63.9 8.1c160.8 9.9 221.4 138.4 247.9 192.2l1.7 0.1c46.5 0 84.3 36.4 84.3 81.2 0 41.5-32.4 75.4-74.1 80.2 15.2 11.9 34 19.2 54.6 19.2 50.1 0 90.7-41.7 90.7-93 0-51.4-40.6-93.1-90.7-93.1z" fill="#FDA106" p-id="2356"></path><path d="M574.4 323.1c4-0.1 7.6 0.4 11.5 0.5-21.7-6.6-45.2-10.4-71.4-9.9-171.6 0-241.6 161.1-272.3 219.9l-1.5 0.4c-50.1 0-90.7 41.7-90.7 93 0 51.4 40.6 93 90.7 93 6 0 11.8-0.7 17.4-1.8-28.5-15.6-48.2-46.2-48.2-81.8 0-51.4 40.6-93 90.7-93l1.5-0.4c7.6-14.5 17.5-35.2 30.8-58.2 7.5 11.7 20.5 19.4 35.4 19.4 23.2 0 42-18.8 42-42 0-20.3-14.4-37.2-33.6-41.2 43.2-51.8 105.9-97.9 197.7-97.9z" fill="#FFFFFF" p-id="2357"></path><path d="M507.1 355m-93.5 0a93.5 93.5 0 1 0 187 0 93.5 93.5 0 1 0-187 0Z" fill="#FF694B" p-id="2358"></path><path d="M451.8 376.2c0-51.6 41.9-93.5 93.5-93.5 8.7 0 17 1.6 25 3.8-16.7-15.3-38.7-24.9-63.1-24.9-51.6 0-93.5 41.9-93.5 93.5 0 42.9 29.1 78.7 68.5 89.7-18.6-17.1-30.4-41.4-30.4-68.6z" fill="#FFB1A4" p-id="2359"></path><path d="M473.5 306.4m-25.7 0a25.7 25.7 0 1 0 51.4 0 25.7 25.7 0 1 0-51.4 0Z" fill="#FFFFFF" p-id="2360"></path><path d="M320 425.4c-3.8 0-7.5-1.2-10.8-3.6-7.9-5.9-9.5-17.1-3.7-25 0.3-0.5 0.7-1 1-1.5 6-8 17.2-9.6 25.2-3.6 7.9 5.9 9.5 17.1 3.7 25-0.3 0.5-0.7 1-1 1.5-3.5 4.7-8.9 7.2-14.4 7.2z" fill="#662F0A" p-id="2361"></path><path d="M793.5 517c-26-56.2-78-162.3-183.3-204.2-12.3-29.9-37.3-52.9-68.2-63.1 4.8-31.2 27.4-121.1 126.4-155.4l10.2 9.2c3.4 3.1 7.8 4.7 12.1 4.7 4.9 0 9.8-2 13.3-5.9 6.7-7.4 6.1-18.8-1.3-25.4L666.3 44c-7.4-6.7-18.8-6.1-25.4 1.3-5.6 6.1-5.8 14.9-1.6 21.6-101.1 43.8-126.6 139.5-132.8 176.9-49.3 0.2-90.7 32.8-105.1 77.4-21 10.1-41.1 23.3-59.8 39.5-7.5 6.5-8.3 17.9-1.8 25.4 3.6 4.1 8.6 6.2 13.6 6.2 4.2 0 8.4-1.4 11.8-4.4 10-8.7 20.6-16.1 31.4-22.8 5.1 56.8 52.4 101.7 110.5 101.7 61 0 110.7-49.3 111.4-110.2 81.3 43.8 123.6 135.1 145 181.4l1.7 3.7c3 6.6 9.5 10.5 16.3 10.5 0.2 0 0.4-0.1 0.6-0.1 0.4 0 0.8 0.2 1.2 0.2 40.1 0 72.7 33.7 72.7 75 0 41.4-32.6 75-72.7 75-37.6 0-68.6-29.6-72.4-67.4 0.2-2.5 0.3-5.1 0.3-7.7 0-9.9-8.7-18-18.6-18s-18 8.1-18 18c0 2.6 0.1 5.1 0.3 7.7-3.7 37.8-34.8 67.4-72.4 67.4s-68.6-29.6-72.3-67.5c0.2-2.5 0.2-5 0.2-7.6 0-9.9-8.7-18-18.6-18s-18 8.1-18 18c0 2.6 0.1 5.1 0.2 7.6-3.7 37.8-34.7 67.5-72.4 67.5-37.6 0-68.6-29.6-72.4-67.4 0.2-2.5 0.3-5.1 0.3-7.7 0-9.9-8.7-18-18.6-18s-18 8.1-18 18c0 2.6 0.1 5.1 0.3 7.7-3.7 37.8-34.8 67.4-72.4 67.4-40.1 0-72.7-33.7-72.7-75 0-41.4 32.6-75 72.7-75 1.7 0 4.8-0.7 6.4-1.1 4.7-1.4 8.7-4.6 11-9l6.5-12.7c10.2-20 24.1-47.4 42.8-75 5.6-8.2 3.4-19.4-4.8-25-8.2-5.5-19.4-3.4-25 4.8-20 29.5-34.5 58-45.1 78.9l-1.9 3.6C175.5 521.6 132 569.2 132 627c0 60.2 47.2 109.1 105.7 110.7l49.1 232.8c1.8 8.3 9.1 14.3 17.6 14.3h418c8.4 0 15.8-5.9 17.6-14.1l10.5-47.7c2.1-9.7-4-19.3-13.7-21.4-9.5-2.1-19.3 4-21.4 13.7l-7.4 33.5h-61.9V794.3c0-9.9-8.1-18-18-18s-18 8.1-18 18v154.5h-76.7V793c0-9.9-8.1-18-18-18s-18 8.1-18 18v155.8h-83.3V796.1c0-9.9-8.1-18-18-18s-18 8.1-18 18v152.7H319l-45.6-216.1c23.8-7.7 44.1-23.3 57.7-44.1 19.5 29.8 52.8 49.4 90.4 49.4s70.9-19.6 90.4-49.4c19.5 29.8 52.8 49.4 90.4 49.4 37.7 0 70.9-19.6 90.4-49.4 14.3 21.8 36 38.1 61.3 45.3l-23.7 117.7c-2 9.8 4.4 19.2 14.1 21.2 1.2 0.2 2.4 0.4 3.6 0.4 8.4 0 15.9-5.9 17.6-14.4l24.5-121.4C846.9 733.6 892 685.8 892 627c0-57.7-43.4-104.6-98.5-110z m-286.4-86.5c-41.6 0-75.5-33.9-75.5-75.5s33.9-75.5 75.5-75.5 75.5 33.9 75.5 75.5c0 41.7-33.9 75.5-75.5 75.5z" fill="#662F0A" p-id="2362"></path></svg>