<?xml version="1.0" standalone="no"?><!DOCTYPE svg PUBLIC "-//W3C//DTD SVG 1.1//EN" "http://www.w3.org/Graphics/SVG/1.1/DTD/svg11.dtd"><svg t="1531911855849" class="icon" style="" viewBox="0 0 1024 1024" version="1.1" xmlns="http://www.w3.org/2000/svg" p-id="2522" xmlns:xlink="http://www.w3.org/1999/xlink" width="48" height="48"><defs><style type="text/css">html, * { user-select: text !important; }
</style></defs><path d="M887.5 337.3c-10.8-16.2-29.1-24.2-47.3-22.9 2.3-9.6 1-20.1-4.9-29-11.3-16.9-34.1-21.4-51-10.2-7.7 5.1-12.4 12.7-14.6 20.9-1-3.7-2.2-7.4-4.4-10.7-8-12-21.7-17.3-35.1-15.7 9.8-20.6 8.7-45.6-5.5-65.4-20.8-29.1-61.2-35.8-90.3-15l-0.1 0.1c-0.9-1.7-1.6-3.5-2.7-5.1-16-24-48.4-30.4-72.3-14.5-4 2.7-7.4 6-10.4 9.5 3.1-16.1-0.9-33.4-12.6-46.6-20-22.5-54.5-24.4-77-4.4-12.4 11.1-26.7 39.3-29.3 57.1l-1.3 0.2c-23.9-26.7-64.9-29-91.6-5.1-15.7 14-22.8 34-21.3 53.5-16.6-3.6-34 3.9-41.3 20-3.4 7.5-3.9 15.5-2.3 22.9-0.1 0.1-0.3 0.2-0.4 0.3-1.8-6-5.2-15.3-21.2-23.7-19.6-10.3-43.9-0.1-53 20-5.4 11.9-4.3 25.1 1.5 35.7-6-2.4-12.4-3.8-19.3-3.8-28.8 0-52.2 23.3-52.2 52.1 0 24.8 17.4 45.4 40.7 50.7 0 0-11.4 47.1 42.9 50.7l8.4-24.3 21 45.4h573.9l1.9-15.4c15.2-8.6 25.8-24.6 26.5-43.4 0-1-0.2-1.9-0.2-2.9 10.4 0.3 21-2.5 30.3-8.7 24-16 30.5-48.3 14.5-72.3z" fill="#FFF6D2" p-id="2523"></path><path d="M127.4 339.7c-10.3 56.6 33.4 66.9 33.4 66.9s-2 22 20.6 42.9c11.1 10.3 59.2 0 63.4-1.7 4.3-1.7 80.6-74.6 80.6-74.6-27.4 12-109.3 30.5-108.9 18 0.9-24.9-26.2-19.3-26.2-19.3-42-1.7-33-55.3-33-55.3l-29.9 23.1zM887.5 337.3c-10.8-16.2-29.1-24.2-47.3-22.9 2.3-9.6 1-20.1-4.9-29-11.3-16.9-34.1-21.4-51-10.2-7.7 5.1-12.4 12.7-14.6 20.9-1-3.7-2.2-7.4-4.4-10.7-8-12-21.7-17.3-35.1-15.7 9.8-20.6 8.7-45.6-5.5-65.4-20.8-29.1-61.2-35.8-90.3-15l-0.1 0.1c-0.9-1.7-1.6-3.5-2.7-5.1-16-24-48.4-30.4-72.3-14.5-4 2.7-7.4 6-10.4 9.5 3.1-16.1-0.9-33.4-12.6-46.6-20-22.5-54.5-24.4-77-4.4-3.8 3.4-7.7 8.4-11.4 14.2 6.2 3 11.9 7.2 16.8 12.7 11.7 13.1 15.7 30.3 12.6 46.4 3-3.5 6.3-6.7 10.3-9.4 23.8-15.9 56.1-9.5 72 14.4 1.1 1.6 1.8 3.4 2.7 5.1l0.1-0.1c28.9-20.7 69.2-14 89.8 14.9 14.1 19.7 15.2 44.6 5.5 65.1 13.3-1.6 27 3.7 34.9 15.6 2.2 3.3 3.4 7 4.4 10.7 2.3-8.2 7-15.8 14.6-20.8 16.8-11.2 39.5-6.7 50.7 10.1 5.9 8.8 7.2 19.3 4.9 28.8 18.1-1.3 36.3 6.6 47 22.7 15.9 23.8 9.5 56.1-14.4 72-9.3 6.2-19.8 8.9-30.1 8.6 0 1 0.2 1.9 0.2 2.9-0.6 15.4-8.1 28.7-19.2 37.8h63.9l1.9-15.4c15.2-8.6 25.8-24.6 26.5-43.4 0-1-0.2-1.9-0.2-2.9 10.4 0.3 21-2.5 30.3-8.7 23.9-16 30.4-48.3 14.4-72.3zM357.7 207.7l1.3-0.2c1.9-12.5 9.5-30 18.2-43.2-14.3 0.7-28.5 5.8-40 16.1-3.1 2.8-5.6 5.9-8 9.1 10.5 3.4 20.5 9.3 28.5 18.2z" fill="#F2DA75" p-id="2524"></path><path d="M827.6 495.5c1.4-6.9-0.4-13.4-3.9-19.3-14-42.2-118.9-109.7-247.5-117.6-9.7 19.8-31.5 33.6-56.9 33.6s-47.2-13.8-56.9-33.6c-127.6 7.8-232.1 74.9-247.1 116.7-4 6.1-5.9 13-4.2 20.2 9.6 40.3 34.7 54.3 57.5 123.3 5.5 16.6 40.1 244.9 40.1 244.9 0 25.2 27.5 45.7 61.3 45.7h298.7c33.9 0 61.3-20.5 61.3-45.7 0 0-8.8-57.8 24.8-187.2 31.4-120.4 63.1-131.4 72.8-181z" fill="#FFFFFF" p-id="2525"></path><path d="M270.1 432c-15.4 16.2-35.4 37.4-52.6 55.7 62.7 90.5 109.7 234.2 107.9 420.5h63.9c1-204.2-49.4-366.8-119.2-476.2z" fill="#FF694B" p-id="2526"></path><path d="M767.8 432c15.4 16.2 35.4 37.4 52.6 55.7-62.7 90.5-109.7 234.3-107.9 420.5h-63.9c-1-204.2 49.5-366.8 119.2-476.2z" fill="#E5391C" p-id="2527"></path><path d="M504.4 911c-24.5 1.1-49 2.6-73.4 4.6-15.4-180.7-34.3-361.2-56.7-541.4 30.5-2.8 61-5 91.6-6.5 16.3 181 29.2 362.1 38.5 543.3zM537.9 912.7c24.5 1.1 49 2.6 73.4 4.6 15.4-180.7 34.3-361.2 56.7-541.4-30.5-2.8-61-5-91.6-6.5-16.3 181-29.1 362.1-38.5 543.3z" fill="#FF694B" p-id="2528"></path><path d="M729.8 794.1H309.5l-74.4-256.4h571.5z" fill="#48BEFE" p-id="2529"></path><path d="M378.260976 690.791236a65.3 144.7 80.097 1 0 285.088034-49.771208 65.3 144.7 80.097 1 0-285.088034 49.771208Z" fill="#FFE200" p-id="2530"></path><path d="M236.4 515.7h569v36h-569zM300.3 781.8h437v36h-437zM254 362c-8.5 0-16-6-17.6-14.6-5.3-27.4 3.8-47.4 26.9-59.5 8.9-4.6 19.7-1.2 24.3 7.6 4.6 8.8 1.2 19.7-7.6 24.3-8.4 4.4-10.7 8-8.3 20.9 1.9 9.8-4.5 19.2-14.3 21.1-1.2 0.1-2.3 0.2-3.4 0.2zM360.5 270.2c-1.5 0-3.1-0.2-4.6-0.6-9.7-2.4-15.4-12.8-12.9-22.4 3.3-13.4 23.3-39.8 54.3-40.1h0.2c9.8 0 17.9 7.9 18 17.8 0.1 9.9-7.9 18.1-17.8 18.2-11.6 0.1-19.2 11.8-20.1 13.9-2.2 8.2-9.2 13.2-17.1 13.2z" fill="#FFFFFF" p-id="2531"></path><path d="M576.9 282.4c-6.4 0-12.6-3.4-15.8-9.4-6.2-11.4-7.5-24-3.7-35.2 3.5-10.3 10.9-18.5 20.8-22.9 9-4 19.7 0 23.8 9.1s0 19.7-9.1 23.8c-0.5 0.2-1.1 0.6-1.4 1.6-0.3 0.8-0.7 3 1.2 6.6 4.7 8.7 1.5 19.7-7.2 24.4-2.7 1.3-5.7 2-8.6 2zM739.3 381c-8.1 0-16.7-2.2-24.3-8.6s-8.5-17.8-2.1-25.4 17.8-8.5 25.4-2.1c0.9 0.5 4.5-0.1 7-1.4 8.8-4.3 19.6-0.9 24.1 7.8s1.3 19.4-7.4 24c-5.2 2.9-13.6 5.7-22.7 5.7zM464.6 321.6c-21.4 0-36.7-16.2-42.4-26.4-4.9-8.7-1.8-19.6 6.9-24.5 8.6-4.8 19.5-1.8 24.4 6.7 1 1.8 6.3 10.1 13.9 7.7 9.4-2.8 19.5 2.5 22.5 12 2.9 9.5-2.5 19.5-12 22.5-4.7 1.3-9.1 2-13.3 2z" fill="#F2DA75" p-id="2532"></path><path d="M739.4 193.9c-12.9-18-31.9-29.9-53.7-33.5-15.7-2.6-31.4-0.7-45.7 5.4-19.1-20.8-48.9-28-75.2-18.6-3-9.6-8.1-18.6-15-26.4-12.9-14.5-30.6-23-50-24.1-19.5-1-37.9 5.4-52.4 18.3-9.9 8.9-20.2 25.1-27.2 41.6-29.9-16.4-68.1-13.5-95 10.5-14.4 12.8-23.6 30-26.5 48.8-1.5 0.2-3 0.5-4.5 0.9-9.6 2.4-15.5 12.2-13.1 21.8 2 8.2 9.4 13.6 17.4 13.6 1.5 0 2.9-0.2 4.4-0.5 2.9-0.7 6.1-0.8 9.1-0.1 5.6 1.2 11.4-0.2 15.7-4 4.3-3.7 6.6-9.3 6.2-15-1.1-14.9 4.5-29 15.3-38.7 19.4-17.2 49.1-15.5 66.4 3.8 4 4.5 9.7 6.2 15.2 5.6 8.4-0.5 15.9-6.3 17.1-15 2-13.9 14.3-38.3 23.6-46.5 15-13.4 38.2-12.1 51.6 3 7.5 8.4 10.6 19.8 8.4 31.2-1.5 8 2.5 16.1 9.8 19.6s16.1 1.7 21.5-4.5c2.4-2.8 4.5-4.8 6.7-6.2 15.6-10.4 36.9-6.2 47.3 9.4l1.7 3.4c4.5 8.8 15.2 12.4 24.1 8 0.9-0.4 1.8-1 2.6-1.6 10.1-7.2 22.4-10.1 34.7-8 12.3 2 23.1 8.7 30.3 18.9 3.9 5.4 6.4 11.3 7.7 17.7 1.7 8.6 9.2 14.6 17.6 14.6 1.1 0 2.3-0.1 3.5-0.3 9.8-1.9 16.1-11.4 14.2-21.1-2.3-11.7-6.9-22.4-13.8-32z" fill="#662F0A" p-id="2533"></path><path d="M902.5 327.3c-10.2-15.3-26-25.7-43.6-29.5-1.1-7.9-4-15.5-8.5-22.4-16.7-25.1-50.7-31.9-75.9-15.2-1.6 1.1-3.2 2.2-4.6 3.5-3.7-3-7.7-5.5-12.1-7.5-9-4.1-19.7 0-23.8 9.1s0 19.7 9.1 23.8c3 1.4 5.6 3.5 7.4 6.3 0.8 1.2 1.5 3.5 2 5.5 2.2 7.8 9.2 13.2 17.3 13.2 8.1 0 15.2-5.4 17.3-13.2 0.9-3.3 2.9-7.8 7.3-10.8 8.6-5.7 20.3-3.4 26 5.2 3.8 5.7 3.1 11.7 2.4 14.7-1.4 5.6 0 11.5 3.8 15.9 3.7 4.4 9.7 6.7 15 6.3 12.8-1 24.1 4.6 31 14.9 5.1 7.6 6.9 16.7 5.1 25.6-1.8 9-7 16.7-14.6 21.7-5.8 3.9-12.7 6.1-19.8 5.6-4.8 0-9.7 1.8-13.2 5.3s-5.4 8.3-5.3 13.2l0.2 1.9c-0.2 6.2-2.2 12.1-5.4 17.1-42.8-45.8-138.6-90.6-242.3-97-7.6-0.5-14.1 3.6-17.3 10.1-7 14.3-23 23.5-40.7 23.5s-33.7-9.2-40.7-23.5c-3.2-6.5-9.4-10.6-17.3-10.1-106 6.5-204.7 54.1-245.6 101.2-1.1-0.3-2-0.8-3.1-0.8-11.5-0.8-19.3-3.8-23.3-9.1-5.7-7.6-3.3-19.5-3.3-19.5 1.1-4.7 0.3-9.6-2.2-13.7s-6.6-7-11.3-8c-15.7-3.5-26.6-17.2-26.6-33.1 0-23 24.3-40.6 46.7-31.7 7.1 2.8 15.1 0.9 20.2-4.8s6-13.9 2.3-20.6c-3.4-6.2-3.8-13.4-0.9-19.7 2.6-5.7 7.7-10.4 13.6-12.4 3.6-1.2 9-2.1 14.6 0.9 8.8 4.6 19.7 1.3 24.4-7.5 4.6-8.8 1.3-19.7-7.5-24.4-13.2-7-28.5-8.1-43.1-3.1-15.4 5.3-28.1 16.8-34.8 31.7-3.1 6.9-4.8 14.2-5.1 21.4-36.9 2-66.4 32.6-66.4 70.1 0 27.5 15.7 51.7 39.7 63 0.3 9.5 2.7 21.6 10.7 32.5 8.1 11 20 18.2 35.3 21.7-3.2 8.2-3.8 16.6-1.9 25 5.1 21.5 14.3 36.8 23.3 51.7 5.1 8.5 16.2 11.3 24.7 6.1 8.5-5.1 11.3-16.2 6.1-24.7-8.2-13.6-15.3-25.3-19.1-41.4-0.2-0.8-0.3-2.4 1.8-6.3 0.9-1.8 1.4-2.4 1.9-3.7 11.4-31.7 102.8-93.5 220.5-104 14.8 20.3 39.6 32.9 66.5 32.9s51.8-12.6 66.5-32.9c103.7 9.2 185.8 57.2 212.5 90.5 3.5 3.8 7.7 11.1 10 17.6 1.4 4 1.8 5.7 1.6 6.5-3.4 17.7-10.3 29.9-19.8 46.8-14.3 25.4-33.8 60.2-52.7 133.1-6.6 25.5-12.2 50.4-16.5 74-1.8 9.8 4.7 19.1 14.5 20.9 1.1 0.2 2.2 0.3 3.2 0.3 8.5 0 16.1-6.1 17.7-14.8 4.1-22.7 9.4-46.7 15.8-71.3 17.8-68.4 35.2-99.5 49.3-124.6 10.3-18.4 19.2-34.2 23.7-57.5 2-10.2 0.2-20.6-5.2-30.3 9.3-9.3 16.2-21 19.1-34 8.5-1.9 16.5-5.3 23.8-10.1 32.3-21.2 41-64.9 19.6-97.1zM668.7 927.5H370c-43.7 0-79.3-28.6-79.3-63.7 0-0.7 0.1-63-24-180.7-1.9-9.4-4.3-16.9-6.6-24.1-1.3-4.1-2.6-8.3-3.8-12.6-2.7-9.6 2.9-19.5 12.5-22.2 9.6-2.6 19.5 3 22.2 12.5 1.1 3.9 2.3 7.6 3.4 11.4 2.6 8.3 5.3 16.9 7.5 27.8 24.9 121.9 24.7 185.3 24.7 188 0 14.6 20.3 27.6 43.3 27.6h298.7c22.6 0 42.5-12.4 43.3-26.8-0.6-5.2-1.9-20.8-0.1-48.2 0.7-9.9 9.3-17.4 19.2-16.7s17.4 9.3 16.7 19.2c-1.9 28.3 0 42.1 0 42.2 0.1 0.8 0.2 1.8 0.2 2.6 0.1 35.1-35.5 63.7-79.2 63.7z" fill="#662F0A" p-id="2534"></path><path d="M257 611c-6.8 0-13.2-3.8-16.3-10.3-0.4-0.8-1.8-3.9-2.1-4.8-3.9-9.1 0.2-19.8 9.4-23.7 9.2-4 19.6 0.3 23.6 9.4 0.1 0.3 0.4 1 0.7 1.7 0.3 0.6 0.9 2 1 2.1 4.3 9 0.4 19.7-8.6 24-2.5 1.1-5.1 1.6-7.7 1.6z" fill="#662F0A" p-id="2535"></path></svg>