<?xml version="1.0" standalone="no"?><!DOCTYPE svg PUBLIC "-//W3C//DTD SVG 1.1//EN" "http://www.w3.org/Graphics/SVG/1.1/DTD/svg11.dtd"><svg t="1531911897814" class="icon" style="" viewBox="0 0 1024 1024" version="1.1" xmlns="http://www.w3.org/2000/svg" p-id="3180" xmlns:xlink="http://www.w3.org/1999/xlink" width="48" height="48"><defs><style type="text/css">html, * { user-select: text !important; }
</style></defs><path d="M513.6 548l67.3-439.2 82.4 11.4L595.8 561" fill="#FFBC00" p-id="3181"></path><path d="M444.1 544.6l-45.3-426.4c-1.4-12.8 7.6-24.3 20.2-26.3l28.5-4.4c13.1-2 25.3 7 27.3 20.1L533.5 488M269.3 555.7L271 131c0.1-13.1 10.6-23.7 23.7-23.9l31.2-0.4c13.4-0.2 24.3 10.7 24.3 24.1L349 505.9" fill="#FFBC00" p-id="3182"></path><path d="M368.6 571.9l-66.9 30.9c-0.5 0.2-1.1 0-1.3-0.5L154.1 286.1c-0.2-0.5 0-1.1 0.5-1.3l66.9-30.9c0.5-0.2 1.1 0 1.3 0.5l146.3 316.3c0.2 0.4 0 1-0.5 1.2z" fill="#FFD348" p-id="3183"></path><path d="M330.2 578.7L288.4 598c-0.5 0.2-1.1 0-1.3-0.5L140.8 281.3c-0.2-0.5 0-1.1 0.5-1.3l41.7-19.3c0.5-0.2 1.1 0 1.3 0.5l146.3 316.3c0.3 0.4 0.1 1-0.4 1.2z" fill="#FFE18D" p-id="3184"></path><path d="M396.6 651.1l-30.2-0.6c-13.3-0.3-23.8-11.2-23.5-24.5l6.2-302.4c0.3-13.2 11.2-23.8 24.5-23.5l30.2 0.6c13.3 0.3 23.8 11.2 23.5 24.5l-6.2 302.4c-0.3 13.2-11.2 23.8-24.5 23.5z" fill="#FFD348" p-id="3185"></path><path d="M358.6 651.1l7.8-0.6c-13.3-0.3-23.8-11.2-23.5-24.5l6.2-302.4c0.3-13.2 40.2-28.8 40.2 1.6l-6.2 302.4c-0.3 13.2-11.2 23.8-24.5 23.5z" fill="#FFE18D" p-id="3186"></path><path d="M666.8 600.8l-72.9-11.1c-0.5-0.1-0.9-0.6-0.8-1.1l52.3-344.5c0.1-0.5 0.6-0.9 1.1-0.8l72.9 11.1c0.5 0.1 0.9 0.6 0.8 1.1L667.9 600c-0.1 0.5-0.6 0.9-1.1 0.8zM566.8 595.7l-73.7 2.9c-0.6 0-1-0.4-1-1l-13.8-348.2c0-0.6 0.4-1 1-1l73.7-2.9c0.6 0 1 0.4 1 1l13.8 348.2c0 0.5-0.4 1-1 1z" fill="#FFD348" p-id="3187"></path><path d="M528.8 595.7l-46 1.8c-0.6 0-1-0.4-1-1L468 248.4c0-0.6 0.4-1 1-1l46-1.8c0.6 0 1 0.4 1 1l13.8 348.2c0 0.4-0.4 0.9-1 0.9z" fill="#FFE18D" p-id="3188"></path><path d="M674.8 540.7l68.6 26.9c0.5 0.2 1.1-0.1 1.3-0.6L872 242.7c0.2-0.5-0.1-1.1-0.6-1.3l-68.6-26.9c-0.5-0.2-1.1 0.1-1.3 0.6L674.2 539.4c-0.2 0.5 0.1 1.1 0.6 1.3z" fill="#FFD348" p-id="3189"></path><path d="M674 936.7H338.9c-21.7 0-40.7-14.6-46.4-35.5L176.1 467.9s157.8 54.5 331 54.5c162.6 0 329.6-54.5 329.6-54.5L720.4 901.2c-5.7 21-24.7 35.5-46.4 35.5z" fill="#FF694B" p-id="3190"></path><path d="M743.4 492.7l-108.6 404c-3.6 13.3-12.5 24-24.1 30v10H674c21.7 0 40.7-14.6 46.4-35.5l116.4-433.4s-37.2 12.1-93.4 24.9z" fill="#E23A1E" p-id="3191"></path><path d="M771.1 490.1s-216.3 31.7-320.8 27.2c-154.3-6.7-274.6-49.4-274.6-49.4l116.4 433.4c20.2 54.1 100.2 35.5 100.2 35.5-21.7 0-40.7-14.6-46.4-35.5l-65-242c3.9 0 7.8-0.3 11.7-1.4 22.3-6.4 35.2-29.6 28.8-51.9s-29.6-35.2-51.9-28.8c-3.5 1-6.6 2.5-9.5 4.2l-12.9-48.1c79.3 13.3 335.4 46.8 524-43.2z" fill="#FFFFFF" p-id="3192"></path><path d="M212.1 622.9c-7.1 0-13.6-4.1-16.1-11.3l-0.7-1.9c-3.2-9.4 1.7-19.6 11.1-22.9 9.4-3.3 19.7 1.7 22.9 11.1s-1.4 20.6-10.8 23.8c-2.1 0.9-4.3 1.2-6.4 1.2zM674 954.7H339c-29.8 0-56-20.1-63.8-48.9l-65.8-248.3c-2.6-9.6 3.2-19.5 12.8-22 9.7-2.6 19.5 3.2 22 12.8L310 896.6c3.5 13 15.4 22.1 29 22.1h335c13.5 0 25.5-9.1 29-22.2l16.8-62.5c2.6-9.6 12.5-15.3 22.1-12.7s15.3 12.5 12.7 22.1l-16.8 62.5c-7.8 28.8-34 48.8-63.8 48.8zM856.6 216.2L831 206.1c-21.6-8.4-46.1 2.2-54.5 23.8l-55.7 141.8 13.7-90.7c1.7-11-1-22.3-7.7-31.2-6.7-9.1-16.3-14.9-27.6-16.6l-27.4-4.3c-2.2-0.2-4.6-0.2-6.7-0.2l12.2-81.6c1.9-11.3-1-22.6-7.7-31.4-6.7-9.1-16.8-15.1-28.1-16.6l-34.8-4.8c-22.8-3.1-43.9 12.7-47.3 35.3l-15.4 101c-4.8-1.4-9.8-2.4-14.9-2.2l-16.8 0.7-19.9-124.3c-3.6-22.8-24.7-38.6-47.8-35l-28.3 4.3c-22.6 3.4-37.9 23.8-35.3 46.3l18.7 162.2-25.9-0.5h-1c-1.9 0-3.6 0.2-5.5 0.5L368 131c0-11.3-4.3-22.1-12.5-30-7.9-7.9-19-12-30-12.2l-31.2 0.5c-22.6 0.2-41.3 19-41.5 41.5l-1 143.5-3.1-6.7c-9.6-20.9-34.8-30-55.7-20.4L167.8 259c-20.9 9.6-30.2 34.6-20.4 55.7L215 460.9c-20.4-5.8-32.6-9.9-33-10-6.2-2.2-13.2-0.7-18.1 3.8-4.9 4.5-6.8 11.4-5.1 17.8l23.2 86.4c2.6 9.6 12.6 15.3 22.1 12.7 9.6-2.6 15.3-12.5 12.7-22.1L202 494.7c55.2 16 175.1 45.6 305.2 45.6 123.4 0 247.5-30.2 304-46.1l-72.3 270.6c-2.6 9.6 3.1 19.5 12.8 22 1.5 0.4 3.1 0.6 4.6 0.6 8 0 15.2-5.3 17.4-13.4l80.6-301.6c1.7-6.4-0.2-13.2-5-17.7s-11.7-6.1-18-4c-0.4 0.1-9.4 3-24.4 7.3l73.5-187.3c8.4-21.7-2.2-45.9-23.8-54.5z m-190 48.2l27.4 4.3c2.2 0.2 3.4 1.7 3.8 2.4 0.7 0.7 1.4 2.2 1.2 4.3l-32.6 214.1c-13.3 2.3-27 4.4-41.1 6.3l34.4-226.4c0.4-3.1 3.7-5.2 6.9-5z m-92 6.3L595 135c0.7-3.4 3.6-5.8 7-5l34.8 4.8c2.2 0.2 3.4 1.4 4.1 2.2 0.5 0.7 1.4 2.4 1 4.6l-20.6 136.8c-0.2 1.4 0 2.6 0.2 4.1l-33.2 217.7-6.3 0.6-8.7-225.9c0.4-1.4 1.1-2.8 1.3-4.2z m-71.7-5.3l27.8-1h0.2c1.9 0 3.4 1 4.1 1.7 0.7 0.5 1.7 1.9 1.9 4.1l9.3 233c-13 0.7-26 1.1-39 1.1h-0.8l-9.3-232.5c0-3.3 2.7-6.2 5.8-6.4zM422 109.6l28.3-4.3c3.4-0.5 6.2 1.9 6.7 5l20.4 128.2c-10.3 7.9-16.8 20.6-16.1 34.6l9.1 230.4c-9.7-0.4-19.3-1-28.9-1.7l3.7-176.2c0.2-8.6-2.4-17-7.2-24.2 0-0.2 0.2-0.7 0.2-1L417 116.3c-0.5-3.1 1.6-6 5-6.7z m-54.5 221.8v-8.2c0.5-2.9 2.6-5 5.5-5h0.2l30.2 0.5c2.2 0 3.4 1.2 4.1 1.9 0.7 0.7 1.7 2.2 1.7 4.3l-3.7 173.5c-14.4-1.6-28.4-3.4-42-5.5l3.2-158.9c0.3-1 0.8-1.7 0.8-2.6z m-78.7-200.2c0-3.4 2.9-6 6-6l31.2-0.5c2.6-0.5 3.6 1.2 4.3 1.7 0.7 0.7 1.7 2.2 1.7 4.6l-0.5 189.4c-0.2 1-0.5 1.9-0.5 2.9l-2.4 117.1-41.3-89.5 1.5-219.7zM180.1 299.5c-1.4-3.1 0-6.7 2.9-7.9l25.2-11.8c0.7-0.2 1.7-0.5 2.6-0.5 2.2 0 4.3 1.2 5.3 3.4L309 483.4c-17.7-3.5-34.1-7.1-48.8-10.7l-80.1-173.2z m583.6 169.9c-14 3.5-29.8 7.1-46.9 10.7l93-237c1.2-3.1 4.8-4.8 7.9-3.4l25.7 10.1c3.1 1.2 4.6 4.6 3.4 7.7l-83.1 211.9z" fill="#662F0A" p-id="3193"></path></svg>