<?xml version="1.0" standalone="no"?><!DOCTYPE svg PUBLIC "-//W3C//DTD SVG 1.1//EN" "http://www.w3.org/Graphics/SVG/1.1/DTD/svg11.dtd"><svg t="1531911893946" class="icon" style="" viewBox="0 0 1024 1024" version="1.1" xmlns="http://www.w3.org/2000/svg" p-id="3048" xmlns:xlink="http://www.w3.org/1999/xlink" width="48" height="48"><defs><style type="text/css">html, * { user-select: text !important; }
</style></defs><path d="M829.5 593.7h-22.4V422.3c0-26.5-21.5-48-48-48H537.8V256.9h-51.4v117.4H264.8c-26.5 0-48 21.5-48 48v171.5h-22.4c-26.5 0-48 21.5-48 48V919h731V641.7c0.1-26.5-21.4-48-47.9-48z" fill="#FFFFFF" p-id="3049"></path><path d="M223.2 493.2h581.6V539H223.2z" fill="#FF694B" p-id="3050"></path><path d="M223.2 422.5h581.6v45.8H223.2z" fill="#FFE200" p-id="3051"></path><path d="M829.5 593.7h-56.7c26.5 0 48 21.5 48 48v239H146.3V907h674.6v11.9h56.7V641.7c-0.1-26.5-21.6-48-48.1-48z" fill="#DCDDDD" p-id="3052"></path><path d="M875.3 717.6c-6.7 11.6-52.3 22.1-60.6 21.1-81.7-9.7-67.2-60.6-101.9-58-25.9 2-70.6 61.5-96.6 61.5-57.1 0-90.4-62.3-100.1-62.3-28.6 0-49.2 63.2-108.9 63.2-71.1 0-91.2-90-100.1-61.5-8.8 28.1-47.4 47.4-71.5 51.4-8.5 1.4-15.6 6.8-24.2 6.9-20.4 0.1-58.2-1-65.8-10.8-13.7-17.8 0-89.8 0-89.8 0-26.5 21.5-48 48-48h585.6c30.1 0 79.8-0.5 97.8 34.2 13.5 25.9-0.1 89.2-1.7 92.1z" fill="#FF694B" p-id="3053"></path><path d="M177 660.1c11-21.3 22.5-30.1 49-30.1l584.3-20.5c19.4 0 47.2 8.3 69.5 23.5-0.8-2.8-1.7-5.4-2.9-7.6-18-34.8-67.7-34.2-97.8-34.2H193.7c-26.5 0-48 21.5-48 48 0 0-13.7 72 0 89.8 1.7 2.2 5.2 4 9.5 5.4 4-27.8 15.1-61.4 21.8-74.3z" fill="#FFFFFF" p-id="3054"></path><path d="M562.6 213.8c0 27.9-22.6 50.6-50.6 50.6-27.9 0-50.6-22.6-50.6-50.6s81.1-136.6 79.7-108.7c-2.9 56.9 21.5 80.8 21.5 108.7z" fill="#FFF100" p-id="3055"></path><path d="M250.1 824.5m-43.3 0a43.3 43.3 0 1 0 86.6 0 43.3 43.3 0 1 0-86.6 0Z" fill="#FFE200" p-id="3056"></path><path d="M424.5 824.5m-43.3 0a43.3 43.3 0 1 0 86.6 0 43.3 43.3 0 1 0-86.6 0Z" fill="#FF694B" p-id="3057"></path><path d="M598.9 824.5m-43.3 0a43.3 43.3 0 1 0 86.6 0 43.3 43.3 0 1 0-86.6 0Z" fill="#FFE200" p-id="3058"></path><path d="M773.2 824.5m-43.3 0a43.3 43.3 0 1 0 86.6 0 43.3 43.3 0 1 0-86.6 0Z" fill="#FF694B" p-id="3059"></path><path d="M146.5 894c-9.9 0-18-8.1-18-18v-64.1c0-9.9 8.1-18 18-18s18 8.1 18 18V876c0 9.9-8.1 18-18 18zM940.6 941.4H83.4c-9.9 0-18-8.1-18-18s8.1-18 18-18h857.3c9.9 0 18 8.1 18 18s-8.1 18-18.1 18zM829.5 575.8h-635c-36.4 0-66 29.6-66 66v113.5c0 9.9 8.1 18 18 18s18-8.1 18-18v-7.6c15.4 7.1 32.2 11.3 49.4 11.3 41.7 0 78.9-21.5 100-55.2C335 737.6 372.2 759 414 759s78.9-21.5 100-55.2c21.1 33.7 58.3 55.2 100.1 55.2s78.9-21.4 100-55.2c21.1 33.8 58.3 55.2 100.1 55.2 15.7 0 31.1-3.4 45.3-9.3v127.4c0 9.9 8.1 18 18 18s18-8.1 18-18V641.8c0-36.4-29.6-66-66-66z m-15.3 147.1c-38.5 0-71.5-26.3-80.2-64.1-2.2-9.4-10.4-15.8-19.9-15.8h-0.1c-9.5 0-17.7 6.6-19.8 15.9-8.6 37.7-41.6 64.1-80.1 64.1-38.6 0-71.5-26.3-80.2-64.1-2.2-9.4-10.3-15.9-19.9-15.9s-17.7 6.5-19.9 15.9c-8.6 37.7-41.6 64.1-80.1 64.1s-71.5-26.3-80.1-64c-2.1-9.4-10.3-16-19.9-16-9.6 0-17.7 6.5-19.9 15.9-8.6 37.7-41.6 64.1-80.1 64.1-17.9 0-35.2-6.1-49.4-16.7v-64.4c0-16.5 13.5-30 30-30h635c16.5 0 30 13.5 30 30V709c-13.5 8.8-29.1 13.9-45.4 13.9zM759.2 356.3H606.3c-9.9 0-18 8.1-18 18s8.1 18 18 18h152.9c16.5 0 30 13.5 30 30v122.5c0 9.9 8.1 18 18 18s18-8.1 18-18V422.3c0-36.4-29.6-66-66-66zM580.6 213.8c0-14.3-4.5-26.7-9.4-39.8-6.4-17.5-13.7-37.3-12.2-68 0.6-12.6-6.6-18.5-9.7-20.4-3.1-1.9-11.6-5.8-22.6 0.3-22.5 12.5-83.3 96.9-83.3 127.9 0 21.1 9.8 39.8 24.9 52.4v90H264.8c-36.4 0-66 29.6-66 66v123.1c0 9.9 8.1 18 18 18s18-8.1 18-18v-123c0-16.5 13.5-30 30-30h281.6c9.9 0 18-8.1 18-18 0-6.5-3.6-11.9-8.7-15v-93.1c15.1-12.6 24.9-31.3 24.9-52.4z m-56.2-75.5c2.7 20.2 8.4 35.7 13 48.1 4 10.9 7.2 19.5 7.2 27.4 0 18-14.6 32.6-32.6 32.6s-32.6-14.6-32.6-32.5c0.8-12.1 25.5-50.8 45-75.6z m-4.6 218h-15.4v-74.7c2.6 0.3 5 0.8 7.7 0.8s5.2-0.5 7.8-0.8l-0.1 74.7z" fill="#662F0A" p-id="3060"></path></svg>