<?xml version="1.0" standalone="no"?><!DOCTYPE svg PUBLIC "-//W3C//DTD SVG 1.1//EN" "http://www.w3.org/Graphics/SVG/1.1/DTD/svg11.dtd"><svg t="1531911909270" class="icon" style="" viewBox="0 0 1024 1024" version="1.1" xmlns="http://www.w3.org/2000/svg" p-id="3570" xmlns:xlink="http://www.w3.org/1999/xlink" width="48" height="48"><defs><style type="text/css">html, * { user-select: text !important; }
</style></defs><path d="M560.9 742.9v173.4c0 19.7-21.9 35.7-49 35.7-27 0-49-16-49-35.7V744.1" fill="#E5C851" p-id="3571"></path><path d="M460.4 739.2H558v45.6h-97.6z" fill="#D1B12A" p-id="3572"></path><path d="M736.6 267.9C724.7 157.8 628.7 72 512 72s-212.7 85.8-224.6 195.9c-1.1 3.8-1.8 7.8-1.8 11.9V697c0 25.2 21.1 45.6 47 45.6h358.7c26 0 47-20.4 47-45.6V279.9c0.1-4.2-0.6-8.1-1.7-12z" fill="#9FDCF9" p-id="3573"></path><path d="M747.3 267.9C735.4 157.8 639.4 72 522.7 72c-14.2 0-28 1.3-41.5 3.7 97.3 17.5 172.7 95.5 183.1 192.2 1.1 3.8 1.8 7.8 1.8 11.9V697c0 25.2-21.1 45.6-47 45.6H702c26 0 47-20.4 47-45.6V279.9c0.1-4.2-0.6-8.1-1.7-12z" fill="#61BEE2" p-id="3574"></path><path d="M423.4 272.4c-26.5 0-48 21.5-48 48v269.2c0 26.5 21.5 48 48 48s48-21.5 48-48V320.4c0-26.5-21.5-48-48-48zM596.9 272.4c-26.5 0-48 21.5-48 48v269.2c0 26.5 21.5 48 48 48s48-21.5 48-48V320.4c0-26.5-21.5-48-48-48z" fill="#48BEFE" p-id="3575"></path><path d="M381.2 179.6c34.1-55.7 93-95.5 162-105.1C532.7 73 522 72 511 72c-116.7 0-212.7 85.8-224.6 195.9-1.1 3.8-1.8 7.8-1.8 11.9V697c0 25.2 21.1 45.6 47 45.6h64.5c-26 0-47-20.4-47-45.6V279.9c0-4.2 0.8-8.1 1.8-11.9 0.5-4.7 1.3-9.4 2.1-14 11.2 7.1 25.8 8.9 39.1 3.5 21.4-8.7 31.5-32.5 22.6-53.3-6-14-19.1-22.8-33.5-24.6z" fill="#FFFFFF" p-id="3576"></path><path d="M738.4 594.7c-9.9 0-18-8.1-18-18V279.9c0-2-1.6-9-1.7-10C707.6 167.3 618.8 90 512 90c-107.5 0-196.9 77.3-208 179.8-0.4 3.8-0.4 6.5-0.4 10.1v25.3c0 9.9-8.1 18-18 18s-18-8.1-18-18v-25.3c0-4.7 0.1-8.3 0.6-13.7C281.3 145.1 386 54 512 54c124.7 0 228.6 90.4 242.3 210.6 1.4 5.4 2.1 10.4 2.1 15.3v296.9c0 9.9-8.1 17.9-18 17.9zM738.4 624.9c-9.9 0-18 8.1-18 18V697c0 15.2-13 27.6-29 27.6H332.6c-16 0-29-12.4-29-27.6V424c0-9.9-8.1-18-18-18s-18 8.1-18 18v273c0 35.1 29.2 63.6 65 63.6h112.3v155.6c0 30.1 29.4 53.7 67 53.7 37.5 0 67-23.6 67-53.7V760.6h112.5c35.9 0 65-28.5 65-63.6v-54.1c0-9.9-8.1-18-18-18zM542.9 916.3c0 8.4-13.2 17.7-31 17.7-17.7 0-31-9.4-31-17.7V760.6h61.9l0.1 155.7zM285.6 386.3c-9.9 0-18-8.1-18-18v-2.9c0-9.9 8.1-18 18-18s18 8.1 18 18v2.9c0 9.9-8.1 18-18 18z" fill="#662F0A" p-id="3577"></path></svg>