<?xml version="1.0" standalone="no"?><!DOCTYPE svg PUBLIC "-//W3C//DTD SVG 1.1//EN" "http://www.w3.org/Graphics/SVG/1.1/DTD/svg11.dtd"><svg t="1531809976595" class="icon" style="" viewBox="0 0 1024 1024" version="1.1" xmlns="http://www.w3.org/2000/svg" p-id="2719" xmlns:xlink="http://www.w3.org/1999/xlink" width="48" height="48"><defs><style type="text/css">html, * { user-select: text !important; }
</style></defs><path d="M431 543.1a272.1 227.8 0 1 0 544.2 0 272.1 227.8 0 1 0-544.2 0Z" fill="#FFCC4D" p-id="2720"></path><path d="M795.5 408c-16.9-41.3-50.6-72.4-94.5-92.5-149.4 0.9-270.1 102.5-270.1 227.7 0 88.2 60.1 164.6 147.7 202.4C745.7 670.3 842.4 522.1 795.5 408z" fill="#EAAC1F" p-id="2721"></path><path d="M60.520052 634.940777a230.7 346.6 67.714 1 0 641.41963-262.882289 230.7 346.6 67.714 1 0-641.41963 262.882289Z" fill="#FFCC4D" p-id="2722"></path><path d="M468.8 641.7c-177.1 72.6-359.9 35.9-408.2-82-3.2-7.8-5.6-15.7-7.5-23.8-7.1 34.1-5.3 67.8 7.5 99 48.3 117.9 231.1 154.6 408.2 82 165.4-67.8 267.3-207 240.7-321.1-19.8 94.8-110.5 192.5-240.7 245.9z" fill="#EAAC1F" p-id="2723"></path><path d="M703.1 297.3c-10.8 0-21.7 0.8-32.4 1.8-82.4-72.5-235.4-86.6-383.7-25.8-29.8 12.2-58.3 27-84.7 43.8-8.4 5.4-10.8 16.5-5.5 24.9 5.4 8.4 16.5 10.8 24.9 5.5 24.6-15.7 51.1-29.5 78.9-40.9 167.7-68.7 340.2-36.4 384.7 72.1 21 51.3 10.3 112.5-30.3 172.5-42.1 62.3-110.6 115.1-193.1 148.9-82.4 33.8-168.3 44.3-242 29.5-71-14.3-121.7-50.3-142.7-101.6-26-63.4-2.4-143.2 63.1-213.4 6.8-7.3 6.4-18.7-0.9-25.4-7.2-6.8-18.6-6.4-25.5 0.9-75.3 80.8-101.5 174.8-70 251.6 25.7 62.8 85.7 106.5 168.9 123.3 24.1 4.8 49.3 7.2 75.2 7.2 60.7 0 125.2-13.1 187.5-38.7 9.4-3.9 18.6-8.1 27.7-12.4 54.1 43.6 124.5 67.8 199.7 67.8 160 0 290.1-110.3 290.1-245.8S863 297.3 703.1 297.3z m0 455.6c-61.2 0-118.7-17.6-164.6-50 60.9-34.8 111.7-80.1 146.4-131.4 47.5-70.3 59.6-143.6 33.8-206.3-4.6-11.3-10.8-21.7-17.6-31.7 0.7 0 1.4-0.1 2-0.1 140.1 0 254.1 94.1 254.1 209.8s-114 209.7-254.1 209.7z" fill="#662F0A" p-id="2724"></path><path d="M163.4 386c-5.2 0-10.3-2.2-13.9-6.6-6.3-7.7-5.2-19 2.5-25.3 0.5-0.4 2.4-2 3.7-3 7.9-6 19.2-4.5 25.2 3.4s4.5 19.2-3.4 25.2c-0.7 0.6-2 1.7-2.7 2.2-3.3 2.8-7.4 4.1-11.4 4.1z" fill="#662F0A" p-id="2725"></path><path d="M197.6 539.7m-24 0a24 24 0 1 0 48 0 24 24 0 1 0-48 0Z" fill="#662F0A" p-id="2726"></path><path d="M535.8 509.3m-24 0a24 24 0 1 0 48 0 24 24 0 1 0-48 0Z" fill="#662F0A" p-id="2727"></path><path d="M732.6 633.8m-24 0a24 24 0 1 0 48 0 24 24 0 1 0-48 0Z" fill="#662F0A" p-id="2728"></path><path d="M588.307945 397.0069a24 24 0 1 0 26.251481-40.185317 24 24 0 1 0-26.251481 40.185317Z" fill="#662F0A" p-id="2729"></path><path d="M808.293023 446.493328a24 24 0 1 0 26.251481-40.185317 24 24 0 1 0-26.251481 40.185317Z" fill="#662F0A" p-id="2730"></path><path d="M320.41391 662.263046a24 24 0 1 0 34.900901-32.953409 24 24 0 1 0-34.900901 32.953409Z" fill="#662F0A" p-id="2731"></path><path d="M881.692214 584.972465a24 24 0 1 0 34.900901-32.953408 24 24 0 1 0-34.900901 32.953408Z" fill="#662F0A" p-id="2732"></path><path d="M386.29018 463.493355a24 24 0 1 0 6.955624-47.493361 24 24 0 1 0-6.955624 47.493361Z" fill="#662F0A" p-id="2733"></path><path d="M264 373.7m-21.6 0a21.6 21.6 0 1 0 43.2 0 21.6 21.6 0 1 0-43.2 0Z" fill="#FFFFFF" p-id="2734"></path><path d="M324.5 363.1c-6.6 0-12.9-3.6-16.1-9.9-4.5-8.9-1-19.7 7.9-24.2 2.3-1.2 57.4-28.7 148.3-32.8 9.6-0.6 18.4 7.2 18.8 17.2 0.4 9.9-7.2 18.4-17.2 18.8-82.5 3.8-133.1 28.7-133.6 29-2.6 1.3-5.4 1.9-8.1 1.9z" fill="#FFFFFF" p-id="2735"></path></svg>