<?xml version="1.0" standalone="no"?><!DOCTYPE svg PUBLIC "-//W3C//DTD SVG 1.1//EN" "http://www.w3.org/Graphics/SVG/1.1/DTD/svg11.dtd"><svg t="1531891145609" class="icon" style="" viewBox="0 0 1024 1024" version="1.1" xmlns="http://www.w3.org/2000/svg" p-id="2634" xmlns:xlink="http://www.w3.org/1999/xlink" width="48" height="48"><defs><style type="text/css">html, * { user-select: text !important; }
</style></defs><path d="M950.270788 846.051145c0 23.871687-19.35072 43.222407-43.220361 43.222407-23.86964 0-43.220361-19.35072-43.220361-43.222407 0-0.271176 0.074701-0.520863 0.078795-0.792039l-0.26913 0c0.010233-0.9967 0.148379-1.961678 0.148379-2.962471 0-70.560032-27.910677-134.460388-73.056899-181.361581l0.260943-0.26299c-7.692193-7.528464-12.495592-17.998933-12.495592-29.614481 0-22.910802 18.570961-41.479717 41.47767-41.479717 11.617595 0 22.088064 4.800329 29.618575 12.495592l0.076748-0.078795c62.155618 62.318324 100.600209 148.297534 100.600209 243.266489l-0.078795 0C950.195064 845.531306 950.270788 845.779969 950.270788 846.051145zM606.40409 581.789483l0 0.107447c-0.212848-0.002047-0.419556-0.032746-0.63445-0.032746-142.497435 0-258.014378 116.599601-258.014378 260.432451 0 0.705058 0.060375 1.393743 0.105401 2.089591 0.020466 0.564865 0.167822 1.093914 0.167822 1.665942 0 23.871687-19.35072 43.222407-43.220361 43.222407-23.871687 0-43.222407-19.35072-43.222407-43.222407 0-0.271176 0.074701-0.520863 0.078795-0.792039l-0.394996 0c0-139.857305 83.486436-259.990383 203.215308-313.963645-49.822732-40.880059-81.626066-102.910834-81.626066-172.388209 0-123.111922 99.80203-222.909859 222.911906-222.909859S828.681546 235.795331 828.681546 358.907253C828.681546 481.803257 729.21823 581.442582 606.40409 581.789483zM605.76964 216.773092c-78.343299 0-141.850705 63.509453-141.850705 141.854798 0 78.341253 63.507406 141.850705 141.850705 141.850705s141.852752-63.509453 141.852752-141.850705C747.623415 280.282544 684.112939 216.773092 605.76964 216.773092zM342.330716 256.001535c-47.368844 13.066597-82.148975 55.764048-82.148975 106.555851 0 42.546002 24.40483 79.415724 60.170404 97.943706 14.476713 7.499811 28.541033 21.713534 30.846542 46.471404 1.998517 21.466917-4.369517 53.691853-32.766264 61.522192-94.958722 26.178219-165.045987 110.373807-168.481226 211.371058 0.210801 1.627057 0.496304 3.232624 0.496304 4.915963 0 21.160949-17.151635 38.314631-38.314631 38.314631-21.158902 0-38.312584-17.153682-38.312584-38.314631 0-0.372483 0.101307-0.719384 0.11154-1.091868l-0.202615-0.002047c0-128.593773 76.339666-230.92644 183.627181-275.247878-44.402279-33.932834-73.092715-86.830601-73.092715-146.441257 0-74.953086 45.225017-139.378397 110.262266-168.574347 30.41573-13.656021 52.572356 2.650363 57.93448 23.63121C358.886787 242.195088 342.330716 256.001535 342.330716 256.001535z" p-id="2635"></path></svg>